<?xml version="1.0" encoding="UTF-8"?>
<!DOCTYPE svg PUBLIC "-//W3C//DTD SVG 1.1//EN" "http://www.w3.org/Graphics/SVG/1.1/DTD/svg11.dtd">
<!-- Creator: CorelDRAW 2018 (64 Bit) -->
<svg xmlns="http://www.w3.org/2000/svg" xml:space="preserve" width="37.1798mm" height="9.2121mm" version="1.1" style="shape-rendering:geometricPrecision; text-rendering:geometricPrecision; image-rendering:optimizeQuality; fill-rule:evenodd; clip-rule:evenodd"
viewBox="0 0 509.23 126.17"
 xmlns:xlink="http://www.w3.org/1999/xlink">
 <defs>
  <style type="text/css">
   <![CDATA[
    .str0 {stroke:black;stroke-width:2.74;stroke-miterlimit:22.9256}
    .fil0 {fill:black}
    .fil1 {fill:#F7D000}
   ]]>
  </style>
 </defs>
 <g id="Capa_x0020_1">
  <metadata id="CorelCorpID_0Corel-Layer"/>
  <polygon class="fil0" points="189.12,100.39 189.12,41.33 170.37,41.41 170.37,25.78 229.54,25.78 229.54,41.33 210.88,41.33 210.88,100.39 "/>
  <polygon class="fil0" points="294.72,25.78 294.72,41.32 266.74,41.33 266.74,53.76 288.5,53.76 288.5,69.3 266.74,69.3 266.74,84.85 294.72,84.85 294.72,100.39 244.98,100.39 244.98,25.78 "/>
  <polygon class="fil0" points="481.25,25.78 481.25,84.85 509.23,84.85 509.23,100.39 459.48,100.39 459.49,25.78 "/>
  <polygon class="fil0" points="335.13,25.78 344.46,38.22 353.79,25.78 378.66,25.78 356.9,61.53 378.66,100.39 353.79,100.39 344.46,84.85 335.14,100.39 310.26,100.39 332.03,61.53 310.26,25.78 "/>
  <polygon class="fil0" points="444.05,25.78 444.05,41.32 416.07,41.33 416.07,53.76 437.84,53.76 437.84,69.3 416.07,69.3 416.07,84.85 444.05,84.85 444.05,100.39 394.31,100.39 394.31,25.78 "/>
  <path class="fil1 str0" d="M10.45 7.16c0,0 -6.53,34.44 -8.05,55.11 -1.51,20.68 6.84,54.71 6.84,54.71 0,0 33.39,9.25 55.11,6.84 21.72,-2.41 52.25,-9.86 52.25,-9.86 0,0 12.92,-25.95 10.51,-51.7 -2.41,-25.75 -10.49,-50.31 -10.49,-50.31 0,0 -25.09,-7.89 -46.63,-9.63 -21.55,-1.74 -30.98,2.82 -59.54,4.83z"/>
  <path class="fil0" d="M12.66 12.01c37.13,-6.13 66.82,-6.32 103.97,-0.09 7.02,37.77 7.03,64.25 -0.01,102 -37.06,6.28 -66.88,6.71 -103.97,0.35 -7.01,-37.82 -7.02,-64.46 0.01,-102.27zm-6.28 -6.36c5.52,-0.89 11.04,-1.79 16.58,-2.58 17.06,-2.31 33.88,-3.42 51.1,-2.96 13.14,0.5 26.04,1.87 39.03,3.87l9.83 1.61c1.2,6.62 2.41,13.23 3.43,19.88 2.09,14.55 3.19,28.86 2.88,43.56 -0.4,11.69 -1.61,23.14 -3.4,34.7 -0.91,5.53 -1.92,11.03 -2.93,16.54 -6.61,1.1 -13.21,2.19 -19.84,3.12 -15.96,2.09 -31.71,3.1 -47.81,2.72 -13.17,-0.47 -26.08,-1.82 -39.09,-3.87l-9.8 -1.64c-1.2,-6.62 -2.4,-13.23 -3.42,-19.88 -2.09,-14.59 -3.18,-28.93 -2.88,-43.67 0.4,-11.72 1.61,-23.2 3.4,-34.79 0.91,-5.55 1.92,-11.07 2.93,-16.59z"/>
  <path class="fil0" d="M26.46 24.13c5.01,-0.52 25.83,-2.28 38.06,-2.43 8.21,-0.1 16.28,0.2 23.01,0.76 6.73,0.56 12.11,1.38 14.96,1.64 1.43,0.13 1.55,0.05 1.81,1.64 0.51,3.02 1.15,10.75 1.82,16.26 0.87,7.12 1.22,21.84 1.22,21.84l-22.82 0.01c-1.02,-0.01 -1.73,0.38 -1.78,1.62 -0.18,5.06 -0.31,12.12 -0.54,16.67 -0.42,6.69 -0.59,13.37 -0.92,20.06 -0.08,1.69 -0.45,2.07 -2.34,2.07 -5.12,0 -10.24,0.21 -15.35,0.21 -4.66,0 -9.32,-0.21 -13.98,-0.21 -1.83,0 -1.96,-0.34 -2.09,-2.65 -0.41,-7.22 -0.95,-14.54 -1.25,-21.73 -0.2,-4.73 -0.1,-9.33 -0.27,-14.03 -0.04,-1.02 -0.46,-2.02 -2.15,-2.02 -6.68,0 -13.16,0 -19.88,0 -1.52,0 -2.07,-0.18 -2.03,-1.92 0.13,-6.72 0.37,-12.69 0.92,-19.09 0.5,-5.76 1.15,-11.37 2.23,-17.25 0.27,-1.45 -0.08,-1.31 1.36,-1.45z"/>
 </g>
</svg>
